<svg xmlns="http://www.w3.org/2000/svg" viewBox="0 0 319.39 237"><defs><style>.cls-1{fill:#303030;}.cls-2{font-size:29px;font-family:Helvetica-Light, Helvetica;letter-spacing:0.3em;}.cls-3,.cls-4{font-size:25.18px;}.cls-3{letter-spacing:0.3em;}.cls-4{letter-spacing:0.3em;}</style></defs><title>Asset 3</title><g id="Layer_2" data-name="Layer 2"><g id="Layer_1-2" data-name="Layer 1"><polygon class="cls-1" points="63.52 37.36 85.97 32 65.85 46.7 68.19 58.38 96.21 70.05 88.97 54 105.97 26 96.21 51.37 110.22 77.06 126.56 60.71 114.89 86.4 156.92 154.12 198.95 86.4 187.28 60.71 203.62 77.06 217.63 51.37 209.97 24 224.97 54 217.63 70.05 245.66 58.38 247.99 46.7 229.97 31 250.33 37.36 264.34 0 250.33 67.72 210.97 79 156.92 175.13 101.97 78 63.52 67.72 49.5 0 63.52 37.36"/><path class="cls-1" d="M151,135.14l3.63,5.83h6.09l3.61-5.83ZM180.36,141h32.72l-17.62-26.92-2.94-4.46-1.61-2.46-4.09,7.27,1.61,2.48,2.92,4.52,8.92,13.74H183.63Zm-57.08-34.09,4.29,6.93,1.69-2.6L132,107l25-38.6,24.91,38.41,4.29-6.88L157,55.41l-29.32,44.74L125,104.28ZM101,141h46.79l-3.62-5.83H113.76l8.88-13.7-4.1-7.3Zm48.44-5.83L153,141h16.34l3.61-5.83Z"/></g></g></svg>